<!-- Generated by IcoMoon.io -->
<svg version="1.1" xmlns="http://www.w3.org/2000/svg" width="47" height="32" viewBox="0 0 47 32">
<title>envelope</title>
<path fill="#2196f3" d="M42.182 0h-37.818c-2.406 0-4.364 1.772-4.364 3.948v23.68c0 2.176 1.958 3.945 4.364 3.945h37.818c2.406 0 4.364-1.769 4.364-3.948v-23.68c0-2.17-1.958-3.945-4.364-3.945zM42.182 2.63c0.198 0 0.387 0.038 0.559 0.102l-19.468 15.261-19.468-15.261c0.166-0.064 0.358-0.102 0.558-0.102 0 0 0 0 0 0h37.818zM42.182 28.943h-37.818c-0.803 0-1.455-0.591-1.455-1.318v-22.112l19.409 15.215c0.276 0.215 0.614 0.32 0.954 0.32 0.004 0 0.008 0 0.013 0 0.356 0 0.684-0.12 0.945-0.323l-0.004 0.003 19.409-15.215v22.112c0 0.727-0.652 1.318-1.455 1.318z"></path>
</svg>
